<?xml version="1.0" encoding="utf-8"?>
<!-- Generator: Adobe Illustrator 15.0.0, SVG Export Plug-In . SVG Version: 6.00 Build 0)  -->
<!DOCTYPE svg PUBLIC "-//W3C//DTD SVG 1.1//EN" "http://www.w3.org/Graphics/SVG/1.1/DTD/svg11.dtd">
<svg version="1.1" id="Layer_1" xmlns="http://www.w3.org/2000/svg" xmlns:xlink="http://www.w3.org/1999/xlink" x="0px" y="0px"
	 width="500px" height="500px" viewBox="0 0 500 500" enable-background="new 0 0 500 500" xml:space="preserve">
<circle fill="#EAD0F0" cx="250" cy="251" r="250"/>
<path fill="#C071D1" d="M94.02,55.593c-8.24,6.594-16.155,13.784-23.687,21.568c-96.008,99.228-93.399,257.498,5.829,353.505
	c99.228,96.009,257.498,93.398,353.505-5.829c96.009-99.228,93.398-257.497-5.829-353.505c-25.267-24.447-54.362-42.5-85.283-54.192
	L250,251L94.02,55.593z"/>
<path fill="#700D86" d="M250,251L94.02,55.593c-8.24,6.594-16.155,13.784-23.687,21.568
	c-96.008,99.228-93.399,257.498,5.829,353.505c99.228,96.009,257.498,93.398,353.505-5.829c27.058-27.965,46.283-60.62,57.72-95.249
	L250,251z"/>
<path fill="#00FF00" d="M70.333,77.162"/>
<path fill="#AB41C2" d="M76.162,430.667c99.228,96.009,257.498,93.398,353.505-5.829c27.058-27.965,46.283-60.62,57.72-95.249
	L250,251"/>
<path fill="#FF1D25" stroke="#000000" stroke-miterlimit="10" d="M250,0"/>
</svg>
